<svg xmlns="http://www.w3.org/2000/svg" width="720" height="460" viewBox="0 0 720 460"><rect width="100%" height="100%" fill="white"/>
<text x="20.0" y="30.0" font-family="Arial, sans-serif" font-size="18" font-weight="bold" fill="#222">Figure 3: Mean-shift vs paired-shift</text>
<line x1="70.0" y1="390.0" x2="640.0" y2="390.0" stroke="#333" stroke-width="1"/>
<line x1="70.0" y1="70.0" x2="70.0" y2="390.0" stroke="#333" stroke-width="1"/>
<text x="315.0" y="435.0" font-family="Arial, sans-serif" font-size="12" font-weight="normal" fill="#222">mean_shift_score</text>
<text x="15.0" y="230.0" font-family="Arial, sans-serif" font-size="12" font-weight="normal" fill="#222">paired_score</text>
<circle cx="70.0" cy="390.0" r="3.5" fill="#2ca02c" opacity="0.70"/>
<circle cx="70.0" cy="390.0" r="3.5" fill="#9467bd" opacity="0.70"/>
<circle cx="70.0" cy="390.0" r="3.5" fill="#d62728" opacity="0.70"/>
<circle cx="70.0" cy="390.0" r="3.5" fill="#1f77b4" opacity="0.70"/>
<circle cx="90.3" cy="378.0" r="3.5" fill="#2ca02c" opacity="0.70"/>
<circle cx="109.3" cy="340.6" r="3.5" fill="#9467bd" opacity="0.70"/>
<circle cx="84.2" cy="382.0" r="3.5" fill="#d62728" opacity="0.70"/>
<circle cx="83.3" cy="382.2" r="3.5" fill="#1f77b4" opacity="0.70"/>
<circle cx="120.2" cy="360.1" r="3.5" fill="#2ca02c" opacity="0.70"/>
<circle cx="137.5" cy="326.5" r="3.5" fill="#9467bd" opacity="0.70"/>
<circle cx="102.7" cy="371.6" r="3.5" fill="#d62728" opacity="0.70"/>
<circle cx="100.7" cy="372.2" r="3.5" fill="#1f77b4" opacity="0.70"/>
<circle cx="70.0" cy="390.0" r="3.5" fill="#2ca02c" opacity="0.70"/>
<circle cx="70.0" cy="390.0" r="3.5" fill="#9467bd" opacity="0.70"/>
<circle cx="70.0" cy="390.0" r="3.5" fill="#d62728" opacity="0.70"/>
<circle cx="70.0" cy="390.0" r="3.5" fill="#1f77b4" opacity="0.70"/>
<circle cx="93.5" cy="376.6" r="3.5" fill="#2ca02c" opacity="0.70"/>
<circle cx="118.1" cy="337.2" r="3.5" fill="#9467bd" opacity="0.70"/>
<circle cx="91.6" cy="377.8" r="3.5" fill="#d62728" opacity="0.70"/>
<circle cx="85.7" cy="380.6" r="3.5" fill="#1f77b4" opacity="0.70"/>
<circle cx="129.0" cy="356.8" r="3.5" fill="#2ca02c" opacity="0.70"/>
<circle cx="208.1" cy="306.0" r="3.5" fill="#9467bd" opacity="0.70"/>
<circle cx="127.0" cy="358.0" r="3.5" fill="#d62728" opacity="0.70"/>
<circle cx="98.7" cy="373.1" r="3.5" fill="#1f77b4" opacity="0.70"/>
<circle cx="70.0" cy="390.0" r="3.5" fill="#2ca02c" opacity="0.70"/>
<circle cx="70.0" cy="390.0" r="3.5" fill="#9467bd" opacity="0.70"/>
<circle cx="70.0" cy="390.0" r="3.5" fill="#d62728" opacity="0.70"/>
<circle cx="70.0" cy="390.0" r="3.5" fill="#1f77b4" opacity="0.70"/>
<circle cx="91.1" cy="378.0" r="3.5" fill="#2ca02c" opacity="0.70"/>
<circle cx="118.6" cy="356.5" r="3.5" fill="#9467bd" opacity="0.70"/>
<circle cx="71.5" cy="389.2" r="3.5" fill="#d62728" opacity="0.70"/>
<circle cx="73.0" cy="388.2" r="3.5" fill="#1f77b4" opacity="0.70"/>
<circle cx="103.1" cy="371.3" r="3.5" fill="#2ca02c" opacity="0.70"/>
<circle cx="124.0" cy="352.8" r="3.5" fill="#9467bd" opacity="0.70"/>
<circle cx="71.8" cy="389.0" r="3.5" fill="#d62728" opacity="0.70"/>
<circle cx="74.4" cy="387.4" r="3.5" fill="#1f77b4" opacity="0.70"/>
<circle cx="70.0" cy="390.0" r="3.5" fill="#2ca02c" opacity="0.70"/>
<circle cx="70.0" cy="390.0" r="3.5" fill="#9467bd" opacity="0.70"/>
<circle cx="70.0" cy="390.0" r="3.5" fill="#d62728" opacity="0.70"/>
<circle cx="70.0" cy="390.0" r="3.5" fill="#1f77b4" opacity="0.70"/>
<circle cx="70.0" cy="390.0" r="3.5" fill="#2ca02c" opacity="0.70"/>
<circle cx="70.0" cy="390.0" r="3.5" fill="#9467bd" opacity="0.70"/>
<circle cx="70.0" cy="390.0" r="3.5" fill="#d62728" opacity="0.70"/>
<circle cx="70.0" cy="390.0" r="3.5" fill="#1f77b4" opacity="0.70"/>
<circle cx="70.0" cy="390.0" r="3.5" fill="#2ca02c" opacity="0.70"/>
<circle cx="70.0" cy="390.0" r="3.5" fill="#9467bd" opacity="0.70"/>
<circle cx="70.0" cy="390.0" r="3.5" fill="#d62728" opacity="0.70"/>
<circle cx="70.0" cy="390.0" r="3.5" fill="#1f77b4" opacity="0.70"/>
<circle cx="70.0" cy="390.0" r="3.5" fill="#2ca02c" opacity="0.70"/>
<circle cx="70.0" cy="390.0" r="3.5" fill="#9467bd" opacity="0.70"/>
<circle cx="70.0" cy="390.0" r="3.5" fill="#d62728" opacity="0.70"/>
<circle cx="70.0" cy="390.0" r="3.5" fill="#1f77b4" opacity="0.70"/>
<circle cx="70.0" cy="389.2" r="3.5" fill="#2ca02c" opacity="0.70"/>
<circle cx="100.1" cy="367.7" r="3.5" fill="#9467bd" opacity="0.70"/>
<circle cx="71.0" cy="389.4" r="3.5" fill="#d62728" opacity="0.70"/>
<circle cx="70.2" cy="389.9" r="3.5" fill="#1f77b4" opacity="0.70"/>
<circle cx="70.0" cy="389.2" r="3.5" fill="#2ca02c" opacity="0.70"/>
<circle cx="100.1" cy="367.7" r="3.5" fill="#9467bd" opacity="0.70"/>
<circle cx="71.0" cy="389.4" r="3.5" fill="#d62728" opacity="0.70"/>
<circle cx="70.2" cy="389.9" r="3.5" fill="#1f77b4" opacity="0.70"/>
<circle cx="70.0" cy="390.0" r="3.5" fill="#2ca02c" opacity="0.70"/>
<circle cx="70.0" cy="390.0" r="3.5" fill="#9467bd" opacity="0.70"/>
<circle cx="70.0" cy="390.0" r="3.5" fill="#d62728" opacity="0.70"/>
<circle cx="70.0" cy="390.0" r="3.5" fill="#1f77b4" opacity="0.70"/>
<circle cx="82.5" cy="382.8" r="3.5" fill="#2ca02c" opacity="0.70"/>
<circle cx="94.1" cy="367.5" r="3.5" fill="#9467bd" opacity="0.70"/>
<circle cx="77.5" cy="385.7" r="3.5" fill="#d62728" opacity="0.70"/>
<circle cx="78.5" cy="385.0" r="3.5" fill="#1f77b4" opacity="0.70"/>
<circle cx="105.6" cy="368.4" r="3.5" fill="#2ca02c" opacity="0.70"/>
<circle cx="109.3" cy="345.8" r="3.5" fill="#9467bd" opacity="0.70"/>
<circle cx="88.7" cy="379.5" r="3.5" fill="#d62728" opacity="0.70"/>
<circle cx="86.1" cy="380.4" r="3.5" fill="#1f77b4" opacity="0.70"/>
<circle cx="70.0" cy="390.0" r="3.5" fill="#2ca02c" opacity="0.70"/>
<circle cx="70.0" cy="390.0" r="3.5" fill="#9467bd" opacity="0.70"/>
<circle cx="70.0" cy="390.0" r="3.5" fill="#d62728" opacity="0.70"/>
<circle cx="70.0" cy="390.0" r="3.5" fill="#1f77b4" opacity="0.70"/>
<circle cx="83.9" cy="382.1" r="3.5" fill="#2ca02c" opacity="0.70"/>
<circle cx="99.1" cy="368.9" r="3.5" fill="#9467bd" opacity="0.70"/>
<circle cx="81.0" cy="383.8" r="3.5" fill="#d62728" opacity="0.70"/>
<circle cx="79.2" cy="384.5" r="3.5" fill="#1f77b4" opacity="0.70"/>
<circle cx="111.4" cy="366.7" r="3.5" fill="#2ca02c" opacity="0.70"/>
<circle cx="162.7" cy="334.0" r="3.5" fill="#9467bd" opacity="0.70"/>
<circle cx="108.4" cy="368.4" r="3.5" fill="#d62728" opacity="0.70"/>
<circle cx="90.1" cy="378.0" r="3.5" fill="#1f77b4" opacity="0.70"/>
<circle cx="70.0" cy="390.0" r="3.5" fill="#2ca02c" opacity="0.70"/>
<circle cx="70.0" cy="390.0" r="3.5" fill="#9467bd" opacity="0.70"/>
<circle cx="70.0" cy="390.0" r="3.5" fill="#d62728" opacity="0.70"/>
<circle cx="70.0" cy="390.0" r="3.5" fill="#1f77b4" opacity="0.70"/>
<circle cx="86.6" cy="380.4" r="3.5" fill="#2ca02c" opacity="0.70"/>
<circle cx="98.3" cy="366.9" r="3.5" fill="#9467bd" opacity="0.70"/>
<circle cx="70.7" cy="389.6" r="3.5" fill="#d62728" opacity="0.70"/>
<circle cx="72.0" cy="388.8" r="3.5" fill="#1f77b4" opacity="0.70"/>
<circle cx="100.8" cy="372.3" r="3.5" fill="#2ca02c" opacity="0.70"/>
<circle cx="98.3" cy="366.6" r="3.5" fill="#9467bd" opacity="0.70"/>
<circle cx="70.9" cy="389.5" r="3.5" fill="#d62728" opacity="0.70"/>
<circle cx="72.7" cy="388.4" r="3.5" fill="#1f77b4" opacity="0.70"/>
<circle cx="70.0" cy="390.0" r="3.5" fill="#2ca02c" opacity="0.70"/>
<circle cx="70.0" cy="390.0" r="3.5" fill="#9467bd" opacity="0.70"/>
<circle cx="70.0" cy="390.0" r="3.5" fill="#d62728" opacity="0.70"/>
<circle cx="70.0" cy="390.0" r="3.5" fill="#1f77b4" opacity="0.70"/>
<circle cx="70.0" cy="390.0" r="3.5" fill="#2ca02c" opacity="0.70"/>
<circle cx="70.0" cy="390.0" r="3.5" fill="#9467bd" opacity="0.70"/>
<circle cx="70.0" cy="390.0" r="3.5" fill="#d62728" opacity="0.70"/>
<circle cx="70.0" cy="390.0" r="3.5" fill="#1f77b4" opacity="0.70"/>
<circle cx="70.0" cy="390.0" r="3.5" fill="#2ca02c" opacity="0.70"/>
<circle cx="70.0" cy="390.0" r="3.5" fill="#9467bd" opacity="0.70"/>
<circle cx="70.0" cy="390.0" r="3.5" fill="#d62728" opacity="0.70"/>
<circle cx="70.0" cy="390.0" r="3.5" fill="#1f77b4" opacity="0.70"/>
<circle cx="70.0" cy="390.0" r="3.5" fill="#2ca02c" opacity="0.70"/>
<circle cx="70.0" cy="390.0" r="3.5" fill="#9467bd" opacity="0.70"/>
<circle cx="70.0" cy="390.0" r="3.5" fill="#d62728" opacity="0.70"/>
<circle cx="70.0" cy="390.0" r="3.5" fill="#1f77b4" opacity="0.70"/>
<circle cx="70.7" cy="389.6" r="3.5" fill="#2ca02c" opacity="0.70"/>
<circle cx="92.5" cy="377.4" r="3.5" fill="#9467bd" opacity="0.70"/>
<circle cx="70.7" cy="389.6" r="3.5" fill="#d62728" opacity="0.70"/>
<circle cx="70.9" cy="389.5" r="3.5" fill="#1f77b4" opacity="0.70"/>
<circle cx="72.7" cy="388.5" r="3.5" fill="#2ca02c" opacity="0.70"/>
<circle cx="92.1" cy="377.6" r="3.5" fill="#9467bd" opacity="0.70"/>
<circle cx="72.9" cy="388.4" r="3.5" fill="#d62728" opacity="0.70"/>
<circle cx="73.6" cy="388.0" r="3.5" fill="#1f77b4" opacity="0.70"/>
<circle cx="70.0" cy="390.0" r="3.5" fill="#2ca02c" opacity="0.70"/>
<circle cx="70.0" cy="390.0" r="3.5" fill="#9467bd" opacity="0.70"/>
<circle cx="70.0" cy="390.0" r="3.5" fill="#d62728" opacity="0.70"/>
<circle cx="70.0" cy="390.0" r="3.5" fill="#1f77b4" opacity="0.70"/>
<circle cx="73.1" cy="388.3" r="3.5" fill="#2ca02c" opacity="0.70"/>
<circle cx="88.9" cy="379.4" r="3.5" fill="#9467bd" opacity="0.70"/>
<circle cx="70.2" cy="389.9" r="3.5" fill="#d62728" opacity="0.70"/>
<circle cx="70.6" cy="389.7" r="3.5" fill="#1f77b4" opacity="0.70"/>
<circle cx="73.1" cy="388.3" r="3.5" fill="#2ca02c" opacity="0.70"/>
<circle cx="88.9" cy="379.4" r="3.5" fill="#9467bd" opacity="0.70"/>
<circle cx="70.2" cy="389.9" r="3.5" fill="#d62728" opacity="0.70"/>
<circle cx="70.6" cy="389.7" r="3.5" fill="#1f77b4" opacity="0.70"/>
<circle cx="70.0" cy="390.0" r="3.5" fill="#2ca02c" opacity="0.70"/>
<circle cx="70.0" cy="390.0" r="3.5" fill="#9467bd" opacity="0.70"/>
<circle cx="70.0" cy="390.0" r="3.5" fill="#d62728" opacity="0.70"/>
<circle cx="70.0" cy="390.0" r="3.5" fill="#1f77b4" opacity="0.70"/>
<circle cx="237.6" cy="295.8" r="3.5" fill="#2ca02c" opacity="0.70"/>
<circle cx="146.6" cy="320.7" r="3.5" fill="#9467bd" opacity="0.70"/>
<circle cx="71.6" cy="389.1" r="3.5" fill="#d62728" opacity="0.70"/>
<circle cx="79.1" cy="384.8" r="3.5" fill="#1f77b4" opacity="0.70"/>
<circle cx="640.0" cy="70.0" r="3.5" fill="#2ca02c" opacity="0.70"/>
<circle cx="204.8" cy="291.3" r="3.5" fill="#9467bd" opacity="0.70"/>
<circle cx="72.6" cy="388.5" r="3.5" fill="#d62728" opacity="0.70"/>
<circle cx="85.0" cy="381.5" r="3.5" fill="#1f77b4" opacity="0.70"/>
<circle cx="70.0" cy="390.0" r="3.5" fill="#2ca02c" opacity="0.70"/>
<circle cx="70.0" cy="390.0" r="3.5" fill="#9467bd" opacity="0.70"/>
<circle cx="70.0" cy="390.0" r="3.5" fill="#d62728" opacity="0.70"/>
<circle cx="70.0" cy="390.0" r="3.5" fill="#1f77b4" opacity="0.70"/>
<circle cx="171.5" cy="332.9" r="3.5" fill="#2ca02c" opacity="0.70"/>
<circle cx="144.2" cy="323.2" r="3.5" fill="#9467bd" opacity="0.70"/>
<circle cx="90.5" cy="378.5" r="3.5" fill="#d62728" opacity="0.70"/>
<circle cx="104.3" cy="370.7" r="3.5" fill="#1f77b4" opacity="0.70"/>
<circle cx="287.4" cy="267.8" r="3.5" fill="#2ca02c" opacity="0.70"/>
<circle cx="297.5" cy="257.2" r="3.5" fill="#9467bd" opacity="0.70"/>
<circle cx="201.9" cy="316.0" r="3.5" fill="#d62728" opacity="0.70"/>
<circle cx="180.5" cy="327.9" r="3.5" fill="#1f77b4" opacity="0.70"/>
<circle cx="70.0" cy="390.0" r="3.5" fill="#2ca02c" opacity="0.70"/>
<circle cx="70.0" cy="390.0" r="3.5" fill="#9467bd" opacity="0.70"/>
<circle cx="70.0" cy="390.0" r="3.5" fill="#d62728" opacity="0.70"/>
<circle cx="70.0" cy="390.0" r="3.5" fill="#1f77b4" opacity="0.70"/>
<circle cx="254.2" cy="286.4" r="3.5" fill="#2ca02c" opacity="0.70"/>
<circle cx="145.6" cy="322.1" r="3.5" fill="#9467bd" opacity="0.70"/>
<circle cx="71.5" cy="389.1" r="3.5" fill="#d62728" opacity="0.70"/>
<circle cx="78.8" cy="385.0" r="3.5" fill="#1f77b4" opacity="0.70"/>
<circle cx="628.7" cy="76.3" r="3.5" fill="#2ca02c" opacity="0.70"/>
<circle cx="191.1" cy="293.7" r="3.5" fill="#9467bd" opacity="0.70"/>
<circle cx="72.6" cy="388.5" r="3.5" fill="#d62728" opacity="0.70"/>
<circle cx="84.9" cy="381.6" r="3.5" fill="#1f77b4" opacity="0.70"/>
<circle cx="70.0" cy="390.0" r="3.5" fill="#2ca02c" opacity="0.70"/>
<circle cx="70.0" cy="390.0" r="3.5" fill="#9467bd" opacity="0.70"/>
<circle cx="70.0" cy="390.0" r="3.5" fill="#d62728" opacity="0.70"/>
<circle cx="70.0" cy="390.0" r="3.5" fill="#1f77b4" opacity="0.70"/>
<circle cx="175.1" cy="330.9" r="3.5" fill="#2ca02c" opacity="0.70"/>
<circle cx="146.6" cy="312.4" r="3.5" fill="#9467bd" opacity="0.70"/>
<circle cx="90.8" cy="378.3" r="3.5" fill="#d62728" opacity="0.70"/>
<circle cx="104.6" cy="370.5" r="3.5" fill="#1f77b4" opacity="0.70"/>
<circle cx="245.1" cy="291.4" r="3.5" fill="#2ca02c" opacity="0.70"/>
<circle cx="218.2" cy="293.4" r="3.5" fill="#9467bd" opacity="0.70"/>
<circle cx="156.7" cy="341.3" r="3.5" fill="#d62728" opacity="0.70"/>
<circle cx="160.5" cy="339.0" r="3.5" fill="#1f77b4" opacity="0.70"/>
<circle cx="70.0" cy="390.0" r="3.5" fill="#2ca02c" opacity="0.70"/>
<circle cx="70.0" cy="390.0" r="3.5" fill="#9467bd" opacity="0.70"/>
<circle cx="70.0" cy="390.0" r="3.5" fill="#d62728" opacity="0.70"/>
<circle cx="70.0" cy="390.0" r="3.5" fill="#1f77b4" opacity="0.70"/>
<circle cx="147.0" cy="346.4" r="3.5" fill="#2ca02c" opacity="0.70"/>
<circle cx="131.8" cy="321.9" r="3.5" fill="#9467bd" opacity="0.70"/>
<circle cx="72.8" cy="388.4" r="3.5" fill="#d62728" opacity="0.70"/>
<circle cx="79.9" cy="384.4" r="3.5" fill="#1f77b4" opacity="0.70"/>
<circle cx="147.0" cy="346.4" r="3.5" fill="#2ca02c" opacity="0.70"/>
<circle cx="131.8" cy="321.9" r="3.5" fill="#9467bd" opacity="0.70"/>
<circle cx="72.8" cy="388.4" r="3.5" fill="#d62728" opacity="0.70"/>
<circle cx="79.9" cy="384.4" r="3.5" fill="#1f77b4" opacity="0.70"/>
<circle cx="660.0" cy="66.0" r="4.0" fill="#1f77b4" opacity="1.00"/>
<text x="670.0" y="70.0" font-family="Arial, sans-serif" font-size="10" font-weight="normal" fill="#222">DiversityCurveDistance</text>
<circle cx="660.0" cy="86.0" r="4.0" fill="#d62728" opacity="1.00"/>
<text x="670.0" y="90.0" font-family="Arial, sans-serif" font-size="10" font-weight="normal" fill="#222">NativeNetLSD</text>
<circle cx="660.0" cy="106.0" r="4.0" fill="#2ca02c" opacity="1.00"/>
<text x="670.0" y="110.0" font-family="Arial, sans-serif" font-size="10" font-weight="normal" fill="#222">GraphStats+MMD</text>
<circle cx="660.0" cy="126.0" r="4.0" fill="#9467bd" opacity="1.00"/>
<text x="670.0" y="130.0" font-family="Arial, sans-serif" font-size="10" font-weight="normal" fill="#222">WLFeatures+MMD</text>
</svg>